<svg aria-hidden="true" style="position: absolute; width: 0; height: 0; overflow: hidden;" version="1.1" xmlns="http://www.w3.org/2000/svg" xmlns:xlink="http://www.w3.org/1999/xlink">
<defs>
<symbol id="icon-arrow-left" viewBox="0 0 68 32">
<path d="M0 15.652v0.696c6.42 3.478 11.821 8.746 13.802 15.652 0.001 0.005 0.454-0.284 0.479-0.293s-0.027 0.004-0.028-0.001c-1.502-5.283-7.19-11.549-11.353-15.358 20.351 0.492 44.767-0.248 65.101 0.348v-1.391l-65.101 0.348c4.163-3.81 9.726-10.311 11.239-15.652l-0.698-0c-1.964 6.919-6.15 11.13-13.44 15.652z"></path>
</symbol>
<symbol id="icon-arrow-right" viewBox="0 0 66 32">
<path d="M66.462 15.652v0.696c-6.275 3.478-11.553 8.746-13.49 15.652-0.001 0.005-0.444-0.284-0.468-0.293s0.026 0.004 0.028-0.001c1.468-5.283 7.027-11.549 11.096-15.359-19.891 0.492-43.754-0.248-63.628 0.348v-1.391l63.628 0.348c-4.069-3.81-9.506-10.311-10.985-15.652l0.682-0c1.919 6.919 6.011 11.13 13.136 15.652z"></path>
</symbol>

  <symbol fill="none" xmlns="http://www.w3.org/2000/svg" viewBox="0 0 82 69" id="accessories">
    <path d="M16.1078 15.6031L14.7003 16.4286M10.4398 18.9276L1 24.4653L7.79088 34.8174L40.9987 15.8083L74.2091 34.8157L81 24.4636C81 24.4636 41.0705 1.04672 40.9987 1C40.9624 1.02423 30.6082 7.09757 20.1831 13.2124M69.1338 51.1762V31.9109M12.8663 31.9109V62.4645C12.8662 63.12 12.9952 63.769 13.2459 64.3746C13.4966 64.9802 13.8641 65.5304 14.3275 65.9939C14.7909 66.4573 15.341 66.8249 15.9465 67.0757C16.5519 67.3265 17.2008 67.4555 17.8561 67.4554H20.7282C22.0967 67.4554 23.4092 66.9116 24.377 65.9437C25.3447 64.9757 25.8884 63.6629 25.8884 62.2941V43.4735C25.8884 42.2605 26.3702 41.0971 27.2277 40.2394C28.0853 39.3816 29.2484 38.8997 30.4612 38.8997H51.5388C52.7516 38.8997 53.9148 39.3816 54.7723 40.2394C55.6299 41.0971 56.1117 42.2605 56.1117 43.4735V55.7336M74.518 58.1338C74.9616 57.597 75.2754 56.9651 75.435 56.2873C75.5947 55.6094 75.5958 54.9038 75.4384 54.2254C75.1855 53.1479 74.5454 52.2009 73.6399 51.5647C72.7343 50.9285 71.6266 50.6475 70.5274 50.7751C69.4282 50.9026 68.4142 51.4299 67.6784 52.2566C66.9426 53.0833 66.5362 54.1517 66.5367 55.2586C66.5367 55.4186 66.5471 55.7336 66.5471 55.7336H50.0051C50.0051 55.7336 50.0198 55.3382 50.0146 55.1357C49.9523 52.8055 48.0491 50.8612 45.7212 50.754C44.8469 50.7124 43.9794 50.9264 43.2247 51.3697C42.4699 51.813 41.8605 52.4665 41.4708 53.2504C41.0811 54.0344 40.9281 54.9148 41.0303 55.7843C41.1325 56.6538 41.4855 57.4747 42.0463 58.1468C42.3281 58.4962 42.4809 58.9321 42.4789 59.381C42.4768 59.8299 42.3201 60.2643 42.0351 60.6111C41.5914 61.1479 41.2775 61.7798 41.1178 62.4577C40.9582 63.1356 40.9571 63.8412 41.1146 64.5195C41.3675 65.5971 42.0076 66.544 42.9132 67.1802C43.8187 67.8164 44.9265 68.0975 46.0257 67.9699C47.1249 67.8423 48.1389 67.3151 48.8747 66.4884C49.6105 65.6617 50.0168 64.5933 50.0163 63.4864C50.0163 63.3263 50.0051 63.0114 50.0051 63.0114H66.5471C66.5471 63.0114 66.5333 63.4068 66.5385 63.6093C66.5999 65.9386 68.5013 67.882 70.8275 67.991C71.7021 68.0331 72.5699 67.8195 73.3251 67.3765C74.0803 66.9334 74.6902 66.28 75.0803 65.4961C75.4705 64.7121 75.624 63.8315 75.5221 62.9617C75.4203 62.092 75.0674 61.2707 74.5067 60.5982C74.2249 60.2488 74.0721 59.8129 74.0742 59.364C74.0762 58.9151 74.233 58.4806 74.518 58.1338Z" stroke="black" stroke-width="2" stroke-linecap="round" stroke-linejoin="round"></path>
  </symbol>
  <symbol fill="none" xmlns="http://www.w3.org/2000/svg" viewBox="0 0 70 70" id="care">
    <path d="M25.9446 29.2789L45.9223 9.30133C46.2187 9.00493 46.5705 8.76981 46.9578 8.6094C47.345 8.44899 47.7601 8.36643 48.1792 8.36643C48.5984 8.36643 49.0134 8.44899 49.4007 8.6094C49.7879 8.76981 50.1398 9.00493 50.4362 9.30133L60.7029 19.5638C61.3011 20.1626 61.6371 20.9744 61.6371 21.8208C61.6371 22.6671 61.3011 23.4789 60.7029 24.0777L21.8288 62.951C21.5324 63.2473 21.1805 63.4825 20.7933 63.6429C20.406 63.8033 19.991 63.8858 19.5718 63.8858C19.1527 63.8858 18.7376 63.8033 18.3504 63.6429C17.9631 63.4825 17.6113 63.2473 17.3149 62.951L7.04815 52.6893C6.75175 52.3929 6.51664 52.0411 6.35623 51.6538C6.19582 51.2666 6.11326 50.8515 6.11326 50.4324C6.11326 50.0132 6.19582 49.5982 6.35623 49.2109C6.51664 48.8237 6.75175 48.4718 7.04815 48.1754L15.6193 39.6042M19.0971 36.1266L22.164 33.0596M27.8286 56.9477L24.53 53.6491M34.5447 50.2308L31.2461 46.9322M47.9777 36.7987L44.6791 33.4992M54.6938 30.0818L51.3951 26.7831M41.2616 43.5148L37.9622 40.2161M7.53701 62.463L1 69M69 14.4033L55.5967 1M5.68602 56.6119L8.32634 53.9716L16.0277 61.6729L13.3874 64.3132C12.8569 64.8437 12.1375 65.1417 11.3873 65.1417C10.6372 65.1417 9.91772 64.8437 9.38728 64.3133L5.68542 60.6114C5.15497 60.0809 4.85697 59.3615 4.85697 58.6114C4.85697 57.8612 5.15497 57.1418 5.68542 56.6113L5.68602 56.6119ZM52.6796 11.5444L59.4106 4.8134L65.1869 10.5897L58.4559 17.3207L52.6796 11.5444Z" stroke="black" stroke-width="2" stroke-linecap="round" stroke-linejoin="round"></path>
  </symbol>
  <symbol fill="none" xmlns="http://www.w3.org/2000/svg" viewBox="0 0 62 77" id="food">
    <path d="M11.6722 46.6162L1.15352 65.7171C1.03899 65.925 0.986755 66.1603 1.00285 66.396C1.01895 66.6317 1.10273 66.8582 1.24449 67.0492C1.38626 67.2402 1.58024 67.388 1.80404 67.4755C2.02784 67.5631 2.27233 67.5868 2.50927 67.5439L11.9105 65.8491C12.1967 65.7975 12.4922 65.8433 12.7483 65.9788C13.0043 66.1143 13.2055 66.3315 13.3185 66.5944L17.0323 75.2343C17.1259 75.4519 17.2803 75.6391 17.4777 75.7743C17.6751 75.9095 17.9075 75.9872 18.148 75.9985C18.3886 76.0099 18.6275 75.9543 18.8372 75.8382C19.0469 75.7221 19.2188 75.5503 19.3332 75.3426L26.6088 62.1301M54.7727 54.6875L60.8465 65.7171C60.961 65.925 61.0132 66.1604 60.9971 66.3961C60.981 66.6318 60.8973 66.8582 60.7555 67.0492C60.6137 67.2402 60.4197 67.388 60.1959 67.4756C59.9721 67.5631 59.7277 67.5868 59.4907 67.5439L50.0866 65.8491C49.8004 65.7975 49.5049 65.8433 49.2488 65.9788C48.9928 66.1143 48.7916 66.3315 48.6786 66.5944L44.9648 75.2344C44.8712 75.4519 44.7168 75.6391 44.5194 75.7743C44.322 75.9095 44.0896 75.9873 43.8491 75.9986C43.6085 76.0099 43.3696 75.9543 43.1599 75.8382C42.9502 75.7222 42.7782 75.5503 42.6639 75.3426L32.3834 56.6699M58.103 23.1565L56.6611 27.5087C56.3531 28.4364 56.3531 29.436 56.6611 30.3637L58.103 34.715C58.4104 35.6426 58.4104 36.6419 58.1031 37.5695C57.7957 38.4972 57.1967 39.3056 56.3919 39.879L52.6151 42.5688C51.81 43.1422 51.2106 43.9509 50.903 44.8788L49.461 49.2301C49.1538 50.1579 48.5547 50.9666 47.7497 51.54C46.9448 52.1134 45.9753 52.4222 44.9803 52.4221H40.3136C39.3185 52.4219 38.3489 52.7307 37.5439 53.3041L33.7672 55.9939C32.9623 56.5673 31.993 56.8762 30.9981 56.8762C30.0031 56.8762 29.0338 56.5673 28.2289 55.9939L24.4522 53.3041C23.6475 52.7308 22.6783 52.422 21.6835 52.4221H17.0158C16.0209 52.4221 15.0514 52.1132 14.2465 51.5398C13.4416 50.9664 12.8425 50.1578 12.5351 49.2301L11.0931 44.8788C10.7855 43.9511 10.1866 43.1426 9.38197 42.5688L5.60523 39.879C4.80025 39.3058 4.20104 38.4974 3.89347 37.5697C3.58591 36.642 3.58577 35.6427 3.89309 34.715L5.33601 30.3637C5.64298 29.4358 5.64298 28.4366 5.33601 27.5087L3.89309 23.1565C3.58562 22.2288 3.58567 21.2294 3.89325 20.3017C4.20082 19.374 4.80013 18.5656 5.60523 17.9925L9.38197 15.3027C10.1865 14.7293 10.7855 13.9211 11.0931 12.9937L12.5351 8.64141C12.8436 7.71413 13.4435 6.90636 14.2489 6.33382C15.0543 5.76129 16.0239 5.45335 17.0188 5.45413H21.6913C22.6859 5.45373 23.655 5.145 24.4599 4.5721L28.2367 1.88233C29.0415 1.30887 30.0109 1 31.0058 1C32.0007 1 32.9701 1.30887 33.7749 1.88233L37.5517 4.5721C38.3569 5.14519 39.3263 5.45393 40.3213 5.45413H44.988C45.9829 5.45407 46.9522 5.76278 47.7571 6.33602C48.5621 6.90926 49.1612 7.7176 49.4688 8.64521L50.9107 12.9975C51.2184 13.9251 51.8177 14.7334 52.6228 15.3065L56.3996 17.9963C57.2022 18.5704 57.7992 19.3786 58.1052 20.3054C58.4111 21.2322 58.4103 22.2301 58.103 23.1565ZM41.801 34.7302C41.801 38.9702 36.965 42.4074 30.9995 42.4074C25.034 42.4074 20.198 38.9702 20.198 34.7302C20.198 30.4902 25.034 27.053 30.9995 27.053C36.965 27.053 41.801 30.4902 41.801 34.7302ZM23.4215 21.4403C24.2394 23.7862 23.3081 26.2222 21.3414 26.8812C19.3748 27.5403 17.1175 26.1728 16.2997 23.8268C15.4818 21.4809 16.4131 19.0449 18.3798 18.3858C20.3464 17.7268 22.6037 19.0943 23.4215 21.4403ZM43.6248 18.3952C45.5914 19.0542 46.5227 21.4902 45.7049 23.8362C44.8871 26.1821 42.6298 27.5496 40.6631 26.8906C38.6965 26.2316 37.7652 23.7956 38.583 21.4496C39.4009 19.1037 41.6581 17.7362 43.6248 18.3952ZM34.7628 19.954C34.7628 22.4332 33.0779 24.443 30.9996 24.443C28.9212 24.443 27.2364 22.4332 27.2364 19.954C27.2364 17.4748 28.9212 15.465 30.9996 15.465C33.0779 15.465 34.7628 17.4748 34.7628 19.954Z" stroke="#222220" stroke-width="2" stroke-linecap="round" stroke-linejoin="round"></path>
  </symbol>


  <symbol fill="none" xmlns="http://www.w3.org/2000/svg" viewBox="0 0 176 28" id="stars">
    <path d="M5.86989 25.6799C5.24192 26.0026 4.53088 25.4386 4.6573 24.7179L6.00561 17.0325L0.281821 11.578C-0.253098 11.0682 0.0238023 10.1362 0.74041 10.0344L8.70043 8.90358L12.2496 1.87294C12.5693 1.23962 13.4354 1.23962 13.7551 1.87294L17.3043 8.90358L25.2644 10.0344C25.981 10.1362 26.2579 11.0682 25.7229 11.578L19.9992 17.0325L21.3475 24.7179C21.4739 25.4386 20.7628 26.0026 20.1349 25.6799L13.0024 22.014L5.86989 25.6799Z" fill="#9D875C"></path>
    <path d="M41.8699 25.6799C41.2419 26.0026 40.5309 25.4386 40.6573 24.7179L42.0056 17.0325L36.2818 11.578C35.7469 11.0682 36.0238 10.1362 36.7404 10.0344L44.7004 8.90358L48.2496 1.87294C48.5693 1.23962 49.4354 1.23962 49.7551 1.87294L53.3043 8.90358L61.2644 10.0344C61.981 10.1362 62.2579 11.0682 61.7229 11.578L55.9992 17.0325L57.3475 24.7179C57.4739 25.4386 56.7628 26.0026 56.1349 25.6799L49.0024 22.014L41.8699 25.6799Z" fill="#9D875C"></path>
    <path d="M77.8699 25.6799C77.2419 26.0026 76.5309 25.4386 76.6573 24.7179L78.0056 17.0325L72.2818 11.578C71.7469 11.0682 72.0238 10.1362 72.7404 10.0344L80.7004 8.90358L84.2496 1.87294C84.5693 1.23962 85.4354 1.23962 85.7551 1.87294L89.3043 8.90358L97.2644 10.0344C97.981 10.1362 98.2579 11.0682 97.7229 11.578L91.9992 17.0325L93.3475 24.7179C93.4739 25.4386 92.7628 26.0026 92.1349 25.6799L85.0024 22.014L77.8699 25.6799Z" fill="#9D875C"></path>
    <path d="M113.87 25.6799C113.242 26.0026 112.531 25.4386 112.657 24.7179L114.006 17.0325L108.282 11.578C107.747 11.0682 108.024 10.1362 108.74 10.0344L116.7 8.90358L120.25 1.87294C120.569 1.23962 121.435 1.23962 121.755 1.87294L125.304 8.90358L133.264 10.0344C133.981 10.1362 134.258 11.0682 133.723 11.578L127.999 17.0325L129.347 24.7179C129.474 25.4386 128.763 26.0026 128.135 25.6799L121.002 22.014L113.87 25.6799Z" fill="#9D875C"></path>
    <path fill-rule="evenodd" clip-rule="evenodd" d="M148.657 24.7179C148.531 25.4386 149.242 26.0026 149.87 25.6799L157.002 22.014L164.135 25.6799C164.763 26.0026 165.474 25.4386 165.347 24.7179L163.999 17.0325L169.723 11.578C170.258 11.0682 169.981 10.1362 169.264 10.0344L161.304 8.90358L157.755 1.87294C157.435 1.23962 156.569 1.23962 156.25 1.87294L152.7 8.90358L144.74 10.0344C144.024 10.1362 143.747 11.0682 144.282 11.578L150.006 17.0325L148.657 24.7179ZM156.627 20.2197L150.638 23.2981L151.766 16.8675C151.819 16.5643 151.719 16.2539 151.502 16.0465L146.778 11.5451L153.363 10.6096C153.635 10.571 153.873 10.3971 154.001 10.1427L157.002 4.19795L160.003 10.1427C160.132 10.3971 160.37 10.571 160.642 10.6096L167.227 11.5451L162.503 16.0465C162.285 16.2539 162.185 16.5643 162.239 16.8675L163.367 23.2981L157.377 20.2197C157.141 20.0981 156.864 20.0981 156.627 20.2197Z" fill="#9D875C"></path>
  </symbol>


  <symbol fill="none" xmlns="http://www.w3.org/2000/svg" viewBox="0 0 16 16" id="clock-fill">
    <path fill-rule="evenodd" clip-rule="evenodd" d="M16 8C16 12.4183 12.4183 16 8 16C3.58172 16 0 12.4183 0 8C0 3.58172 3.58172 0 8 0C12.4183 0 16 3.58172 16 8ZM8 3.5C8 3.22386 7.77614 3 7.5 3C7.22386 3 7 3.22386 7 3.5V9C7 9.17943 7.09614 9.3451 7.25193 9.43412L10.7519 11.4341C10.9917 11.5711 11.2971 11.4878 11.4341 11.2481C11.5711 11.0083 11.4878 10.7029 11.2481 10.5659L8 8.70984V3.5Z" fill="#9D875C"></path>
  </symbol>
  <symbol fill="none" xmlns="http://www.w3.org/2000/svg" viewBox="0 0 16 16" id="geo-alt-fill">
    <path fill-rule="evenodd" clip-rule="evenodd" d="M8 16C8 16 14 10.3137 14 6C14 2.68629 11.3137 0 8 0C4.68629 0 2 2.68629 2 6C2 10.3137 8 16 8 16ZM8 9C9.65685 9 11 7.65685 11 6C11 4.34315 9.65685 3 8 3C6.34315 3 5 4.34315 5 6C5 7.65685 6.34315 9 8 9Z" fill="#9D875C"></path>
  </symbol>
  <symbol fill="none" xmlns="http://www.w3.org/2000/svg" viewBox="0 0 45 50" id="play-fill">
    <path d="M42.3209 28.6319L7.56914 48.4718C4.61861 50.1562 0.836864 48.1189 0.836864 44.7299V5.05028C0.836864 1.66131 4.61861 -0.376037 7.56914 1.30842L42.3209 21.1482C45.2594 22.8258 45.2594 26.9543 42.3209 28.6319Z" fill="#222220"></path>
  </symbol>

  <symbol fill="none" xmlns="http://www.w3.org/2000/svg" viewBox="0 0 72 67" id="paw_svg">
    <path d="M11.6946 45.1895C11.0448 44.7201 10.4193 44.2352 9.81794 43.7347M7.13673 41.1859C3.26473 37.0001 1 31.9272 1 26.4705C1.03721 -7.48577 70.946 -7.49458 70.9761 26.4705C71.4111 34.2762 65.8326 40.0022 60.6741 45.6789C58.9224 51.1795 49.3478 67.0153 45.7611 65.9486C43.2562 65.204 45.6964 51.8405 42.3055 52.2929C38.8393 52.7567 39.7511 52.4874 35.9854 52.4874C28.2609 52.4874 21.122 50.6259 15.3335 47.4708M49.7199 34.3387C49.7199 39.7953 43.5771 44.2188 35.9996 44.2188C28.422 44.2188 22.2792 39.7953 22.2792 34.3387C22.2792 28.8821 28.422 24.4586 35.9996 24.4586C43.5771 24.4586 49.7199 28.8821 49.7199 34.3387ZM26.3728 17.2351C27.4117 20.2542 26.2287 23.3892 23.7306 24.2373C21.2324 25.0854 18.3651 23.3255 17.3263 20.3064C16.2874 17.2874 17.4704 14.1524 19.9685 13.3042C22.4667 12.4561 25.334 14.216 26.3728 17.2351ZM52.0382 13.3161C54.5364 14.1642 55.7194 17.2992 54.6805 20.3183C53.6417 23.3374 50.7744 25.0973 48.2762 24.2491C45.7781 23.401 44.5951 20.266 45.6339 17.2469C46.6728 14.2279 49.5401 12.4679 52.0382 13.3161ZM40.7797 15.3231C40.7797 18.5137 38.6395 21.1001 35.9995 21.1001C33.3595 21.1001 31.2193 18.5137 31.2193 15.3231C31.2193 12.1325 33.3595 9.54607 35.9995 9.54607C38.6395 9.54607 40.7797 12.1325 40.7797 15.3231Z" stroke="black" stroke-width="2" stroke-linecap="round" stroke-linejoin="round"></path>
  </symbol>


  <symbol fill="none" xmlns="http://www.w3.org/2000/svg" viewBox="0 0 40 32" id="PARAGRAPH">
    <path d="M2.93757 30.1589C5.23191 32.6137 9.11464 32.6137 11.5855 30.1589C13.8798 27.7041 13.8798 24.0219 11.409 21.7425C10.1736 20.5151 8.76166 20.1644 7.34976 19.8137C4.52596 19.2877 0.290251 9.4685 13.8798 0.526031L13.5268 0C6.29083 3.68219 4.70245 7.18904 2.76108 10.3452C-1.12165 17.5343 -0.768676 26.6521 2.93757 30.1589ZM29.0578 30.1589C31.3521 32.6137 35.2348 32.6137 37.7057 30.1589C40 27.7041 40 24.0219 37.5292 21.7425C36.2938 20.5151 34.8819 20.1644 33.47 19.8137C30.6461 19.2877 26.4104 9.4685 40 0.526031L39.647 0C32.411 3.68219 30.8226 7.18904 28.8813 10.3452C24.9985 17.5343 25.3515 26.6521 29.0578 30.1589Z" fill="#9D875C"></path>
  </symbol>
  <symbol fill="none" xmlns="http://www.w3.org/2000/svg" viewBox="0 0 40 32" id="PARAGRAPH2">
    <path d="M37.0624 30.1589C34.7681 32.6137 30.8854 32.6137 28.4145 30.1589C26.1202 27.7041 26.1202 24.0219 28.591 21.7425C29.8264 20.5151 31.2383 20.1644 32.6502 19.8137C35.474 19.2877 39.7097 9.4685 26.1202 0.526031L26.4732 0C33.7092 3.68219 35.2976 7.18904 37.2389 10.3452C41.1217 17.5343 40.7687 26.6521 37.0624 30.1589ZM10.9422 30.1589C8.6479 32.6137 4.76517 32.6137 2.29434 30.1589C0 27.7041 0 24.0219 2.47083 21.7425C3.70624 20.5151 5.11815 20.1644 6.53005 19.8137C9.35385 19.2877 13.5896 9.4685 0 0.526031L0.352974 0C7.58897 3.68219 9.17736 7.18904 11.1187 10.3452C15.0015 17.5343 14.6485 26.6521 10.9422 30.1589Z" fill="#9D875C"></path>
  </symbol>



</defs>
</svg>
