<!-- Generated by IcoMoon.io -->
<svg version="1.1" xmlns="http://www.w3.org/2000/svg" width="1024" height="1024" viewBox="0 0 1024 1024">
<g id="icomoon-ignore">
</g>
<path d="M512 92.2c136.802 0 152.998 0.6 206.801 3 50.001 2.2 77.001 10.6 94.997 17.6 23.804 9.2 41.003 20.4 58.803 38.2 17.997 18 29.001 35 38.199 58.8 6.997 18 15.398 45.2 17.6 95 2.398 54 2.999 70.2 2.999 206.799 0 136.802-0.602 153.003-2.999 206.801-2.202 50.001-10.603 77.001-17.6 95.002-9.199 23.799-20.403 40.998-38.199 58.799-18.001 18.001-34.999 29.001-58.803 38.199-17.997 7.002-45.197 15.398-94.997 17.6-53.999 2.398-70.199 2.999-206.801 2.999-136.8 0-153-0.602-206.8-2.999-50-2.202-77-10.598-95-17.6-23.8-9.199-41-20.399-58.8-38.199-18-18.001-29-34.999-38.2-58.799-7-18.001-15.4-45.201-17.6-95.002-2.4-53.999-3-70.199-3-206.801 0-136.799 0.6-152.999 3-206.799 2.2-50 10.6-77 17.6-95 9.2-23.8 20.4-41 38.2-58.8 18-18 35-29 58.8-38.2 18-7 45.2-15.4 95-17.6 53.8-2.4 70-3 206.8-3zM512 0c-139 0-156.4 0.6-211 3-54.4 2.4-91.8 11.2-124.2 23.8-33.8 13.2-62.4 30.6-90.8 59.2-28.6 28.4-46 57-59.2 90.6-12.6 32.6-21.4 69.8-23.8 124.2-2.4 54.8-3 72.2-3 211.2s0.6 156.399 3 210.999c2.4 54.4 11.2 91.802 23.8 124.203 13.2 33.796 30.6 62.4 59.2 90.799 28.4 28.399 57 45.999 90.6 58.999 32.6 12.599 69.8 21.397 124.2 23.799 54.6 2.398 72 2.999 210.999 2.999s156.399-0.602 210.999-2.999c54.4-2.402 91.802-11.2 124.203-23.799 33.6-13.001 62.199-30.601 90.598-58.999s45.999-57.003 58.999-90.603c12.599-32.597 21.402-69.798 23.799-124.198 2.402-54.601 2.999-72 2.999-210.999s-0.597-156.401-2.999-211c-2.398-54.4-11.2-91.8-23.799-124.2-12.599-34-29.999-62.6-58.598-91-28.399-28.4-57.003-46-90.603-59-32.597-12.6-69.798-21.4-124.198-23.8-54.801-2.6-72.201-3.2-211.2-3.2z"></path>
<path d="M512 249c-145.2 0-263 117.8-263 263s117.8 263.002 263 263.002c145.199 0 263.002-117.803 263.002-263.002s-117.803-263-263.002-263zM512 682.598c-94.2 0-170.6-76.399-170.6-170.598s76.4-170.6 170.6-170.6c94.199 0 170.598 76.4 170.598 170.6s-76.399 170.598-170.598 170.598z"></path>
<path d="M846.801 238.598c0 34-27.601 61.4-61.402 61.4-34.001 0-61.397-27.6-61.397-61.4 0-34 27.597-61.4 61.397-61.4s61.402 27.6 61.402 61.4z"></path>
</svg>
