<!-- Generated by IcoMoon.io -->
<svg version="1.1" xmlns="http://www.w3.org/2000/svg" width="1024" height="1024" viewBox="0 0 1024 1024">
<g id="icomoon-ignore">
</g>
<path d="M577.596 504.649c0 160.883-129.301 291.307-288.792 291.307-159.493 0-288.804-130.453-288.804-291.307s129.301-291.315 288.804-291.315 288.792 130.431 288.792 291.315z"></path>
<path d="M894.417 504.649c0 151.437-64.653 274.249-144.401 274.249-79.753 0-144.401-122.812-144.401-274.249 0-151.439 64.64-274.253 144.388-274.253 79.753 0 144.405 122.774 144.405 274.253z"></path>
<path d="M1024.013 504.644c0 135.65-22.737 245.683-50.79 245.683-28.049 0-50.773-110.003-50.773-245.683s22.733-245.686 50.773-245.686c28.045 0 50.79 109.995 50.79 245.686z"></path>
</svg>
