<svg aria-hidden="true" style="position: absolute; width: 0; height: 0; overflow: hidden;" version="1.1" xmlns="http://www.w3.org/2000/svg" xmlns:xlink="http://www.w3.org/1999/xlink">
<defs>
<symbol id="icon-arrow-left" viewBox="0 0 68 32">
<path d="M0 15.652v0.696c6.42 3.478 11.821 8.746 13.802 15.652 0.001 0.005 0.454-0.284 0.479-0.293s-0.027 0.004-0.028-0.001c-1.502-5.283-7.19-11.549-11.353-15.358 20.351 0.492 44.767-0.248 65.101 0.348v-1.391l-65.101 0.348c4.163-3.81 9.726-10.311 11.239-15.652l-0.698-0c-1.964 6.919-6.15 11.13-13.44 15.652z"></path>
</symbol>
<symbol id="icon-arrow-right" viewBox="0 0 66 32">
<path d="M66.462 15.652v0.696c-6.275 3.478-11.553 8.746-13.49 15.652-0.001 0.005-0.444-0.284-0.468-0.293s0.026 0.004 0.028-0.001c1.468-5.283 7.027-11.549 11.096-15.359-19.891 0.492-43.754-0.248-63.628 0.348v-1.391l63.628 0.348c-4.069-3.81-9.506-10.311-10.985-15.652l0.682-0c1.919 6.919 6.011 11.13 13.136 15.652z"></path>
</symbol>
</defs>
</svg>
