<svg width="379" height="136" viewBox="0 0 379 136" fill="none" xmlns="http://www.w3.org/2000/svg">
<path d="M38.5191 0H0.659856L0 7.14924H0.082482C5.9387 4.35528 9.73288 1.3148 14.1044 1.3148H15.8365V52.9208H23.3424V1.3148H24.9921C29.3636 1.3148 33.3227 4.43746 39.179 7.23142H39.3439L38.5191 0Z" fill="#C1AB81"/>
<path d="M85.0873 0V24.7347H59.1054V0H51.6821V52.9208H59.1054V26.0495H85.0873V52.9208H92.5107V0H85.0873Z" fill="#C1AB81"/>
<path d="M120.695 51.606H116.488V26.0495H130.345V24.7347H116.488V1.3148H120.695C126.964 1.3148 134.387 1.80785 137.191 9.2858H138.759L138.676 0H109.065V52.9208H138.676L138.759 43.635H137.191C134.387 51.113 126.964 51.606 120.695 51.606Z" fill="#C1AB81"/>
<path d="M244.359 0C242.132 6.90272 240.318 12.1619 236.524 22.7625L230.09 41.3341L215.903 0H215.573L201.056 41.3341L186.869 0H178.951L197.757 54.0713H198.005L212.604 12.655L226.956 54.0713H227.203L237.926 23.2556C241.143 14.2163 243.452 7.56012 246.586 0H244.359Z" fill="#C1AB81"/>
<path d="M266.406 52.9208V0H258.983V52.9208H266.406Z" fill="#C1AB81"/>
<path d="M311.145 43.635C308.34 51.113 300.917 51.606 294.648 51.606H290.442V0H283.018V52.9208H312.629L312.712 43.635H311.145Z" fill="#C1AB81"/>
<path d="M343.978 0H325.419V52.9208H342.74C360.804 52.9208 372.104 42.9776 372.104 25.8852C372.104 9.12145 360.804 0 343.978 0ZM343.978 51.7704C338.121 51.7704 334.74 51.5239 332.843 51.113V1.23263H343.318C355.855 1.23263 363.938 11.258 363.938 26.2961C363.938 42.5668 356.68 51.7704 343.978 51.7704Z" fill="#C1AB81"/>
<path d="M12.5885 135.096V82.1752H5.16511V135.096H12.5885ZM45.0864 82.3396V82.1752H42.282C38.2404 86.0375 33.209 90.7214 25.3732 98.1172L14.898 107.978L33.1265 135.096H42.9419L21.0017 104.198L26.2805 99.1855C33.044 92.7758 38.9003 87.3523 45.0864 82.3396Z" fill="#C1AB81"/>
<path d="M64.7358 135.096V82.1752H57.3124V135.096H64.7358Z" fill="#C1AB81"/>
<path d="M116.815 82.1752C116.815 82.1752 116.815 82.997 116.815 105.349V123.181L87.6993 82.1752H78.8737V82.4217L82.4205 87.3523V135.014H83.9051V89.4066L117.64 136H118.3V82.1752H116.815Z" fill="#C1AB81"/>
<path d="M161.919 111.101L162.744 112.416H174.951V130.33C171.734 132.877 166.785 134.685 161.424 134.685C149.052 134.685 140.886 123.92 140.886 108.553C140.886 92.7758 148.309 82.5039 159.939 82.5039C163.734 82.5039 165.961 84.8048 167.61 87.8453C170.25 92.6115 176.601 93.6798 180.477 89.8997L180.642 89.8175C176.271 84.9692 169.177 81.3535 160.599 81.3535C144.68 81.3535 132.72 92.2006 132.72 109.047C132.72 126.057 144.02 136 161.094 136C170.497 136 177.096 132.795 181.797 129.344V111.101H161.919Z" fill="#C1AB81"/>
<path d="M215.156 82.1752H196.597V135.096H213.919C231.982 135.096 243.282 125.153 243.282 108.06C243.282 91.2967 231.982 82.1752 215.156 82.1752ZM215.156 133.946C209.3 133.946 205.918 133.699 204.021 133.288V83.4079H214.496C227.033 83.4079 235.117 93.4332 235.117 108.471C235.117 124.742 227.858 133.946 215.156 133.946Z" fill="#C1AB81"/>
<path d="M283.585 81.3535C267.749 81.3535 255.541 92.2006 255.541 109.211C255.541 125.892 267.501 136 282.678 136C298.432 136 310.722 125.153 310.722 108.143C310.722 91.461 298.762 81.3535 283.585 81.3535ZM283.42 134.85C271.79 134.85 263.707 124.249 263.707 108.389C263.707 92.7758 271.295 82.5039 283.008 82.5039C294.473 82.5039 302.556 93.1045 302.556 108.964C302.556 124.578 294.968 134.85 283.42 134.85Z" fill="#C1AB81"/>
<path d="M373.969 82.1752H367.288L351.863 121.126L334.295 82.1752H326.294V82.4217L327.861 85.8731L323.242 135.014H324.644L329.016 88.5849L348.812 131.809H349.142L366.958 86.777L371.494 135.096H379L373.969 82.1752Z" fill="#C1AB81"/>
</svg>
