<!-- Generated by IcoMoon.io -->
<svg version="1.1" xmlns="http://www.w3.org/2000/svg" width="1024" height="1024" viewBox="0 0 1024 1024">
<g id="icomoon-ignore">
</g>
<path d="M322.14 928c386.319 0 597.681-320.141 597.681-597.681 0-9-0.201-18.2-0.602-27.2 41.118-29.734 76.599-66.565 104.781-108.76-38.293 17.037-78.95 28.163-120.58 33 43.836-26.275 76.655-67.553 92.382-116.18-41.237 24.439-86.336 41.679-133.363 50.98-31.684-33.666-73.574-55.957-119.198-63.427s-92.437 0.299-133.205 22.103c-40.764 21.804-73.212 56.431-92.326 98.526-19.11 42.095-23.825 89.314-13.41 134.357-83.499-4.19-165.187-25.882-239.766-63.667s-140.386-90.823-193.152-155.673c-26.819 46.239-35.026 100.954-22.952 153.027s43.521 97.594 87.952 127.313c-33.356-1.059-65.981-10.040-95.18-26.2v2.6c-0.030 48.522 16.746 95.562 47.475 133.117s73.515 63.309 121.085 72.883c-30.899 8.452-63.329 9.685-94.78 3.601 13.423 41.728 39.54 78.229 74.706 104.401 35.166 26.176 77.626 40.717 121.454 41.596-74.407 58.449-166.322 90.15-260.94 90.001-16.78-0.026-33.543-1.054-50.2-3.081 96.122 61.666 207.937 94.421 322.14 94.362z"></path>
</svg>
